<?xml version="1.0" standalone="no"?>
<!DOCTYPE svg PUBLIC "-//W3C//DTD SVG 20010904//EN"
 "http://www.w3.org/TR/2001/REC-SVG-20010904/DTD/svg10.dtd">
<svg version="1.0" xmlns="http://www.w3.org/2000/svg"
 width="394.000000pt" height="394.000000pt" viewBox="0 0 394.000000 394.000000"
 preserveAspectRatio="xMidYMid meet">
<metadata>
Created by potrace 1.14, written by Peter Selinger 2001-2017
</metadata>
<g transform="translate(0.000000,394.000000) scale(0.100000,-0.100000)"
fill="#000000" stroke="none">
<path d="M689 3614 c-200 -173 -365 -320 -367 -327 -1 -7 47 -133 108 -281
l110 -268 10 -157 c36 -548 151 -1071 320 -1457 225 -513 561 -819 962 -874
164 -23 152 -19 134 -39 -12 -14 -16 -40 -16 -114 l0 -97 70 0 70 0 0 97 c0
75 -4 100 -16 114 -15 17 -15 18 7 23 13 3 49 7 79 10 126 13 289 72 405 148
103 67 265 229 342 343 294 436 461 1092 499 1952 l6 153 111 206 c75 141 107
211 101 220 -5 7 -175 154 -377 327 -239 205 -374 314 -385 311 -9 -2 -163
-29 -342 -60 -308 -53 -336 -56 -540 -61 l-215 -5 -345 71 c-190 40 -350 74
-356 76 -6 2 -175 -138 -375 -311z m2191 -1324 l0 -440 -925 0 -925 0 0 440 0
440 925 0 925 0 0 -440z"/>
</g>
</svg>
